<?xml version="1.0" encoding="UTF-8"?>
<!DOCTYPE svg PUBLIC "-//W3C//DTD SVG 1.1//EN" "http://www.w3.org/Graphics/SVG/1.1/DTD/svg11.dtd">
<svg xmlns="http://www.w3.org/2000/svg" version="1.1" width="500px" height="500px" style="shape-rendering:geometricPrecision; text-rendering:geometricPrecision; image-rendering:optimizeQuality; fill-rule:evenodd; clip-rule:evenodd" xmlns:xlink="http://www.w3.org/1999/xlink">
<g><path style="opacity:0.777" fill="#431387" d="M 255.5,147.5 C 249.409,147.211 243.409,147.545 237.5,148.5C 242.735,146.55 248.402,145.883 254.5,146.5C 254.5,125.5 254.5,104.5 254.5,83.5C 203.844,81.5045 152.844,80.8378 101.5,81.5C 101.178,103.908 101.511,126.242 102.5,148.5C 102.167,148.5 101.833,148.5 101.5,148.5C 100.503,126.006 100.169,103.339 100.5,80.5C 151.997,79.5011 203.664,79.1678 255.5,79.5C 255.5,102.167 255.5,124.833 255.5,147.5 Z"/></g>
<g><path style="opacity:1" fill="#5212b7" d="M 254.5,83.5 C 204.351,82.8443 154.351,83.511 104.5,85.5C 103.914,85.2907 103.414,84.9574 103,84.5C 102.5,105.164 102.333,125.831 102.5,146.5C 105.449,148.056 108.116,147.722 110.5,145.5C 111.738,147.734 113.404,148.068 115.5,146.5C 116.713,146.747 117.38,147.414 117.5,148.5C 112.5,148.5 107.5,148.5 102.5,148.5C 101.511,126.242 101.178,103.908 101.5,81.5C 152.844,80.8378 203.844,81.5045 254.5,83.5 Z"/></g>
<g><path style="opacity:0.086" fill="#2d015c" d="M 100.5,80.5 C 100.169,103.339 100.503,126.006 101.5,148.5C 101.5,148.833 101.5,149.167 101.5,149.5C 100.168,138.353 99.501,126.853 99.5,115C 99.5001,103.328 99.8335,91.8284 100.5,80.5 Z"/></g>
<g><path style="opacity:1" fill="#6017c4" d="M 254.5,83.5 C 254.5,104.5 254.5,125.5 254.5,146.5C 248.402,145.883 242.735,146.55 237.5,148.5C 237.168,205.669 237.501,262.669 238.5,319.5C 238.611,320.117 238.944,320.617 239.5,321C 263.831,321.5 288.164,321.667 312.5,321.5C 314.17,321.249 315.67,320.582 317,319.5C 317.5,307.171 317.667,294.838 317.5,282.5C 345.574,282.176 373.574,282.509 401.5,283.5C 401.5,327.167 401.5,370.833 401.5,414.5C 301.5,414.5 201.5,414.5 101.5,414.5C 101.5,386.167 101.5,357.833 101.5,329.5C 105.042,329.813 108.375,329.479 111.5,328.5C 112.167,328.5 112.833,328.5 113.5,328.5C 115.698,328.88 117.365,328.213 118.5,326.5C 119.148,324.502 119.981,322.502 121,320.5C 121.167,301.667 121.333,282.833 121.5,264C 121.056,229.486 120.889,194.986 121,160.5C 121.03,157.639 120.197,155.305 118.5,153.5C 118.634,151.708 118.301,150.042 117.5,148.5C 117.38,147.414 116.713,146.747 115.5,146.5C 113.404,148.068 111.738,147.734 110.5,145.5C 108.116,147.722 105.449,148.056 102.5,146.5C 102.333,125.831 102.5,105.164 103,84.5C 103.414,84.9574 103.914,85.2907 104.5,85.5C 154.351,83.511 204.351,82.8443 254.5,83.5 Z"/></g>
<g><path style="opacity:1" fill="#2496f1" d="M 136.5,288.5 C 136.348,238.778 136.514,189.111 137,139.5C 136.292,140.381 135.458,141.047 134.5,141.5C 134.5,140.167 134.5,138.833 134.5,137.5C 137.024,136.178 139.69,135.012 142.5,134C 141.397,131.031 140.064,130.864 138.5,133.5C 136.417,131.86 136.084,129.86 137.5,127.5C 139.57,127.449 141.403,128.115 143,129.5C 155.022,127.566 167.189,126.899 179.5,127.5C 179.5,130.167 179.5,132.833 179.5,135.5C 180.833,135.5 182.167,135.5 183.5,135.5C 183.5,132.833 183.5,130.167 183.5,127.5C 186.167,127.5 188.833,127.5 191.5,127.5C 191.055,130.365 191.722,132.865 193.5,135C 193.167,135.333 192.833,135.667 192.5,136C 194.5,138.333 196.5,140.667 198.5,143C 196.19,143.497 193.857,143.663 191.5,143.5C 191.5,144.833 191.5,146.167 191.5,147.5C 194.167,147.5 196.833,147.5 199.5,147.5C 199.336,144.813 199.503,142.146 200,139.5C 201.5,140.333 202.667,141.5 203.5,143C 205.891,143.287 208.224,143.787 210.5,144.5C 210.833,148 211.167,151.5 211.5,155C 210.742,162.844 209.909,170.677 209,178.5C 205.943,179.451 202.777,179.784 199.5,179.5C 201.464,186.027 202.798,192.694 203.5,199.5C 202.167,199.5 200.833,199.5 199.5,199.5C 199.945,202.365 199.278,204.865 197.5,207C 199.42,212.197 200.087,217.697 199.5,223.5C 196.833,223.5 194.167,223.5 191.5,223.5C 191.674,218.979 191.007,218.645 189.5,222.5C 187.604,223.466 185.604,223.799 183.5,223.5C 183.5,226.167 183.5,228.833 183.5,231.5C 180.833,231.5 178.167,231.5 175.5,231.5C 175.5,234.167 175.5,236.833 175.5,239.5C 170.167,240.167 170.167,240.833 175.5,241.5C 175.5,242.833 175.5,244.167 175.5,245.5C 173.334,245.579 171.334,246.246 169.5,247.5C 168.328,247.081 167.328,246.415 166.5,245.5C 164.473,247.339 162.14,247.839 159.5,247C 163.5,244.667 163.5,242.333 159.5,240C 154.177,239.501 148.844,239.334 143.5,239.5C 143.262,220.821 143.595,202.154 144.5,183.5C 143.979,170.493 143.312,157.493 142.5,144.5C 142.167,161.5 141.833,178.5 141.5,195.5C 141.507,212.886 142.174,230.052 143.5,247C 142.234,249.383 141.568,252.05 141.5,255C 141.645,264.84 141.645,274.674 141.5,284.5C 141.333,285.833 141.167,287.167 141,288.5C 140.586,288.043 140.086,287.709 139.5,287.5C 138.668,297.817 138.168,308.151 138,318.5C 137.83,308.325 137.33,298.325 136.5,288.5 Z"/></g>
<g><path style="opacity:1" fill="#3988f6" d="M 239.5,97.5 C 239.5,109.5 239.5,121.5 239.5,133.5C 235.766,133.323 232.099,133.656 228.5,134.5C 228.611,133.883 228.944,133.383 229.5,133C 232.482,132.502 235.482,132.335 238.5,132.5C 238.5,121.167 238.5,109.833 238.5,98.5C 198.5,98.5 158.5,98.5 118.5,98.5C 118.5,109.833 118.5,121.167 118.5,132.5C 117.505,121.012 117.172,109.345 117.5,97.5C 158.167,97.5 198.833,97.5 239.5,97.5 Z"/></g>
<g><path style="opacity:1" fill="#5163e8" d="M 239.5,97.5 C 198.833,97.5 158.167,97.5 117.5,97.5C 117.172,109.345 117.505,121.012 118.5,132.5C 118.5,132.833 118.5,133.167 118.5,133.5C 116.52,121.545 115.854,109.212 116.5,96.5C 157.67,96.168 198.67,96.5014 239.5,97.5 Z"/></g>
<g><path style="opacity:0.031" fill="#22024a" d="M 255.5,147.5 C 250.298,148.21 244.965,148.876 239.5,149.5C 238.5,206.163 238.167,262.829 238.5,319.5C 237.501,262.669 237.168,205.669 237.5,148.5C 243.409,147.545 249.409,147.211 255.5,147.5 Z"/></g>
<g><path style="opacity:1" fill="#2392ef" d="M 228.5,134.5 C 227.833,134.5 227.5,134.833 227.5,135.5C 225.983,135.511 224.816,136.177 224,137.5C 223.345,139.628 222.511,141.628 221.5,143.5C 219.671,183.488 218.838,223.821 219,264.5C 218.582,268.178 218.082,271.845 217.5,275.5C 219.95,295.517 219.95,315.517 217.5,335.5C 219.199,335.34 220.866,335.506 222.5,336C 223.061,337.676 224.061,339.009 225.5,340C 257.172,340.833 288.839,340.667 320.5,339.5C 326.871,337.796 330.871,333.796 332.5,327.5C 334.471,318.895 335.138,309.895 334.5,300.5C 351.167,300.5 367.833,300.5 384.5,300.5C 384.5,314.833 384.5,329.167 384.5,343.5C 383.907,346.676 382.907,349.843 381.5,353C 383.256,356.616 383.923,360.449 383.5,364.5C 380.833,364.5 378.167,364.5 375.5,364.5C 375.786,366.277 376.453,367.944 377.5,369.5C 376.78,374.137 376.28,378.803 376,383.5C 375.505,381.527 375.338,379.527 375.5,377.5C 370.167,376.833 364.833,376.167 359.5,375.5C 359.5,374.5 359.5,373.5 359.5,372.5C 356.833,372.5 354.167,372.5 351.5,372.5C 351.5,374.167 351.5,375.833 351.5,377.5C 346.167,377.5 340.833,377.5 335.5,377.5C 335.5,380.167 335.5,382.833 335.5,385.5C 346.187,385.168 356.854,385.501 367.5,386.5C 362.208,387.495 356.875,387.828 351.5,387.5C 351.16,390.144 351.827,392.477 353.5,394.5C 350,394.833 346.5,395.167 343,395.5C 339.069,395.456 335.402,394.789 332,393.5C 331.667,394.167 331.333,394.833 331,395.5C 284.293,395.454 236.793,395.454 188.5,395.5C 168.26,393.881 147.927,392.881 127.5,392.5C 125.577,391.692 123.577,391.192 121.5,391C 121.444,376.954 121.444,362.954 121.5,349C 125.295,346.825 128.628,347.492 131.5,351C 132.5,351.667 133.5,351.667 134.5,351C 132.368,348.545 129.701,346.879 126.5,346C 127.649,344.256 128.983,344.089 130.5,345.5C 132.825,341.025 134.658,336.359 136,331.5C 136.5,317.171 136.667,302.837 136.5,288.5C 137.33,298.325 137.83,308.325 138,318.5C 138.168,308.151 138.668,297.817 139.5,287.5C 140.086,287.709 140.586,288.043 141,288.5C 141.167,287.167 141.333,285.833 141.5,284.5C 141.645,274.674 141.645,264.84 141.5,255C 141.568,252.05 142.234,249.383 143.5,247C 142.174,230.052 141.507,212.886 141.5,195.5C 141.833,178.5 142.167,161.5 142.5,144.5C 143.312,157.493 143.979,170.493 144.5,183.5C 143.595,202.154 143.262,220.821 143.5,239.5C 148.844,239.334 154.177,239.501 159.5,240C 163.5,242.333 163.5,244.667 159.5,247C 162.14,247.839 164.473,247.339 166.5,245.5C 167.328,246.415 168.328,247.081 169.5,247.5C 171.334,246.246 173.334,245.579 175.5,245.5C 175.5,244.167 175.5,242.833 175.5,241.5C 170.167,240.833 170.167,240.167 175.5,239.5C 175.5,236.833 175.5,234.167 175.5,231.5C 178.167,231.5 180.833,231.5 183.5,231.5C 183.5,228.833 183.5,226.167 183.5,223.5C 185.604,223.799 187.604,223.466 189.5,222.5C 191.007,218.645 191.674,218.979 191.5,223.5C 194.167,223.5 196.833,223.5 199.5,223.5C 200.087,217.697 199.42,212.197 197.5,207C 199.278,204.865 199.945,202.365 199.5,199.5C 200.833,199.5 202.167,199.5 203.5,199.5C 202.798,192.694 201.464,186.027 199.5,179.5C 202.777,179.784 205.943,179.451 209,178.5C 209.909,170.677 210.742,162.844 211.5,155C 211.167,151.5 210.833,148 210.5,144.5C 208.224,143.787 205.891,143.287 203.5,143C 202.667,141.5 201.5,140.333 200,139.5C 199.503,142.146 199.336,144.813 199.5,147.5C 196.833,147.5 194.167,147.5 191.5,147.5C 191.5,146.167 191.5,144.833 191.5,143.5C 193.857,143.663 196.19,143.497 198.5,143C 196.5,140.667 194.5,138.333 192.5,136C 192.833,135.667 193.167,135.333 193.5,135C 191.722,132.865 191.055,130.365 191.5,127.5C 188.833,127.5 186.167,127.5 183.5,127.5C 183.5,130.167 183.5,132.833 183.5,135.5C 182.167,135.5 180.833,135.5 179.5,135.5C 179.5,132.833 179.5,130.167 179.5,127.5C 167.189,126.899 155.022,127.566 143,129.5C 141.403,128.115 139.57,127.449 137.5,127.5C 136.084,129.86 136.417,131.86 138.5,133.5C 140.064,130.864 141.397,131.031 142.5,134C 139.69,135.012 137.024,136.178 134.5,137.5C 134.5,138.833 134.5,140.167 134.5,141.5C 131.502,134.666 126.168,132 118.5,133.5C 118.5,133.167 118.5,132.833 118.5,132.5C 118.5,121.167 118.5,109.833 118.5,98.5C 158.5,98.5 198.5,98.5 238.5,98.5C 238.5,109.833 238.5,121.167 238.5,132.5C 235.482,132.335 232.482,132.502 229.5,133C 228.944,133.383 228.611,133.883 228.5,134.5 Z"/></g>
<g><path style="opacity:0.475" fill="#3f1283" d="M 101.5,149.5 C 101.5,149.167 101.5,148.833 101.5,148.5C 101.833,148.5 102.167,148.5 102.5,148.5C 107.5,148.5 112.5,148.5 117.5,148.5C 118.301,150.042 118.634,151.708 118.5,153.5C 118.5,211.167 118.5,268.833 118.5,326.5C 117.365,328.213 115.698,328.88 113.5,328.5C 114.531,327.751 115.698,327.085 117,326.5C 117.667,268.167 117.667,209.833 117,151.5C 112.142,149.586 106.975,148.919 101.5,149.5 Z"/></g>
<g><path style="opacity:1" fill="#5d17bc" d="M 118.5,153.5 C 120.197,155.305 121.03,157.639 121,160.5C 120.889,194.986 121.056,229.486 121.5,264C 121.333,282.833 121.167,301.667 121,320.5C 119.981,322.502 119.148,324.502 118.5,326.5C 118.5,268.833 118.5,211.167 118.5,153.5 Z"/></g>
<g><path style="opacity:1" fill="#4b20be" d="M 227.5,135.5 C 227.5,136.5 227.5,137.5 227.5,138.5C 226.5,138.5 225.5,138.5 224.5,138.5C 224.688,140.103 224.188,141.437 223,142.5C 222.5,205.499 222.333,268.499 222.5,331.5C 221.501,269.002 221.168,206.336 221.5,143.5C 222.511,141.628 223.345,139.628 224,137.5C 224.816,136.177 225.983,135.511 227.5,135.5 Z"/></g>
<g><path style="opacity:1" fill="#3883f1" d="M 221.5,143.5 C 221.168,206.336 221.501,269.002 222.5,331.5C 222.989,332.995 223.655,334.329 224.5,335.5C 224.953,336.458 225.619,337.292 226.5,338C 257.669,338.831 288.669,338.664 319.5,337.5C 325.602,336.391 329.935,333.057 332.5,327.5C 330.871,333.796 326.871,337.796 320.5,339.5C 288.839,340.667 257.172,340.833 225.5,340C 224.061,339.009 223.061,337.676 222.5,336C 220.866,335.506 219.199,335.34 217.5,335.5C 219.95,315.517 219.95,295.517 217.5,275.5C 218.082,271.845 218.582,268.178 219,264.5C 218.838,223.821 219.671,183.488 221.5,143.5 Z"/></g>
<g><path style="opacity:0.696" fill="#320e8f" d="M 317.5,282.5 C 345.328,281.502 373.328,281.169 401.5,281.5C 401.5,282.167 401.5,282.833 401.5,283.5C 373.574,282.509 345.574,282.176 317.5,282.5 Z"/></g>
<g><path style="opacity:0.29" fill="#270d52" d="M 402.5,281.5 C 402.167,281.5 401.833,281.5 401.5,281.5C 373.328,281.169 345.328,281.502 317.5,282.5C 317.667,294.838 317.5,307.171 317,319.5C 315.67,320.582 314.17,321.249 312.5,321.5C 313.315,320.163 314.482,319.163 316,318.5C 316.5,305.838 316.667,293.171 316.5,280.5C 345.338,280.169 374.005,280.502 402.5,281.5 Z"/></g>
<g><path style="opacity:1" fill="#268ff0" d="M 136.5,288.5 C 136.667,302.837 136.5,317.171 136,331.5C 134.658,336.359 132.825,341.025 130.5,345.5C 128.983,344.089 127.649,344.256 126.5,346C 129.701,346.879 132.368,348.545 134.5,351C 133.5,351.667 132.5,351.667 131.5,351C 128.628,347.492 125.295,346.825 121.5,349C 121.444,362.954 121.444,376.954 121.5,391C 123.577,391.192 125.577,391.692 127.5,392.5C 147.927,392.881 168.26,393.881 188.5,395.5C 236.793,395.454 284.293,395.454 331,395.5C 331.333,394.833 331.667,394.167 332,393.5C 335.402,394.789 339.069,395.456 343,395.5C 346.5,395.167 350,394.833 353.5,394.5C 351.827,392.477 351.16,390.144 351.5,387.5C 356.875,387.828 362.208,387.495 367.5,386.5C 356.854,385.501 346.187,385.168 335.5,385.5C 335.5,382.833 335.5,380.167 335.5,377.5C 340.833,377.5 346.167,377.5 351.5,377.5C 351.5,375.833 351.5,374.167 351.5,372.5C 354.167,372.5 356.833,372.5 359.5,372.5C 359.5,373.5 359.5,374.5 359.5,375.5C 364.833,376.167 370.167,376.833 375.5,377.5C 375.338,379.527 375.505,381.527 376,383.5C 376.28,378.803 376.78,374.137 377.5,369.5C 376.453,367.944 375.786,366.277 375.5,364.5C 378.167,364.5 380.833,364.5 383.5,364.5C 383.923,360.449 383.256,356.616 381.5,353C 382.907,349.843 383.907,346.676 384.5,343.5C 384.5,360.833 384.5,378.167 384.5,395.5C 295.904,396.497 207.237,396.831 118.5,396.5C 118.5,379.833 118.5,363.167 118.5,346.5C 118.5,346.167 118.5,345.833 118.5,345.5C 126.673,344.16 131.84,339.493 134,331.5C 134.5,268.168 134.667,204.834 134.5,141.5C 135.458,141.047 136.292,140.381 137,139.5C 136.514,189.111 136.348,238.778 136.5,288.5 Z"/></g>
<g><path style="opacity:1" fill="#477ef3" d="M 386.5,299.5 C 386.5,332.5 386.5,365.5 386.5,398.5C 296.833,398.5 207.167,398.5 117.5,398.5C 117.17,380.992 117.503,363.659 118.5,346.5C 118.5,363.167 118.5,379.833 118.5,396.5C 162.665,397.167 206.999,397.5 251.5,397.5C 296.172,397.5 340.505,396.833 384.5,395.5C 384.5,378.167 384.5,360.833 384.5,343.5C 384.5,329.167 384.5,314.833 384.5,300.5C 367.833,300.5 351.167,300.5 334.5,300.5C 335.138,309.895 334.471,318.895 332.5,327.5C 333.317,318.191 333.65,308.857 333.5,299.5C 351.167,299.5 368.833,299.5 386.5,299.5 Z"/></g>
<g><path style="opacity:1" fill="#482cc2" d="M 386.5,299.5 C 387.832,332.902 387.832,366.402 386.5,400C 341.5,400.167 296.5,400.333 251.5,400.5C 206.162,400.5 161.162,399.833 116.5,398.5C 116.833,398.5 117.167,398.5 117.5,398.5C 207.167,398.5 296.833,398.5 386.5,398.5C 386.5,365.5 386.5,332.5 386.5,299.5 Z"/></g>
<g><path style="opacity:0.672" fill="#3f1b73" d="M 401.5,281.5 C 401.833,281.5 402.167,281.5 402.5,281.5C 402.83,326.405 402.497,371.239 401.5,416C 301.167,416.667 200.833,416.667 100.5,416C 99.5047,386.907 99.1713,357.74 99.5,328.5C 103.5,328.5 107.5,328.5 111.5,328.5C 108.375,329.479 105.042,329.813 101.5,329.5C 101.5,357.833 101.5,386.167 101.5,414.5C 201.5,414.5 301.5,414.5 401.5,414.5C 401.5,370.833 401.5,327.167 401.5,283.5C 401.5,282.833 401.5,282.167 401.5,281.5 Z"/></g>
<g><path style="opacity:1" fill="#2e89f0" d="M 384.5,395.5 C 340.505,396.833 296.172,397.5 251.5,397.5C 206.999,397.5 162.665,397.167 118.5,396.5C 207.237,396.831 295.904,396.497 384.5,395.5 Z"/></g>
<g><path style="opacity:1" fill="#526aec" d="M 118.5,345.5 C 118.5,345.833 118.5,346.167 118.5,346.5C 117.503,363.659 117.17,380.992 117.5,398.5C 117.167,398.5 116.833,398.5 116.5,398.5C 115.847,380.468 116.514,362.802 118.5,345.5 Z"/></g>
<g><path style="opacity:1" fill="#3437c4" d="M 224.5,335.5 C 225.756,335.461 226.756,335.961 227.5,337C 258.165,337.5 288.832,337.667 319.5,337.5C 288.669,338.664 257.669,338.831 226.5,338C 225.619,337.292 224.953,336.458 224.5,335.5 Z"/></g>
</svg>
